# xmcd
#
# Track frame offsets:
#	150
#	15984
#	33413
#	45869
#	65359
#	81597
#	96246
#	110874
#	126579
#	139809
#	158799
#
# Disc length: 2349 seconds
# Revision: 2
# Processed by: cddbd v1.5.2PL0 Copyright (c) Steve Scherf et al.
# Submitted via: dBpowerAMP V12.0
#
DISCID=93092b0b
DTITLE=Lorrie Morgan - Show Me How
DYEAR=2004
DGENRE=Country
TTITLE0=Do You Still Wanna Buy Me That Drink (Frank)
TTITLE1=Used
TTITLE2=Bombshell
TTITLE3=I Can Count On You
TTITLE4=Show Me How
TTITLE5=Us Girls
TTITLE6=The Wedding
TTITLE7=One Less Monkey
TTITLE8=Charlie And Betty
TTITLE9=Another Winter Without You
TTITLE10=Rocks
EXTD=
EXTT0=
EXTT1=
EXTT2=
EXTT3=
EXTT4=
EXTT5=
EXTT6=
EXTT7=
EXTT8=
EXTT9=
EXTT10=
PLAYORDER=
